<?xml version="1.0" encoding="UTF-8" standalone="no"?>
<svg viewBox="0 0 802.43247 104.17299">
  <path
    d="M 49.892578 0 L 49.892578 9.3867188 L 49.892578 18.771484 L 36.134766 19.148438 C 23.537766 19.494437 21.897125 19.761734 16.703125 22.302734 C -5.2538751 33.045734 -5.6507501 64.073203 16.03125 74.908203 L 16.029297 74.910156 L 22.212891 78 L 44.552734 78 L 66.892578 78 L 66.892578 39 L 66.892578 0 L 58.392578 0 L 49.892578 0 z M 289.89258 18.833984 L 267.64258 19.171875 C 246.96158 19.486875 245.03958 19.672734 240.39258 21.802734 C 220.52958 30.910734 216.39444 56.707297 232.52344 70.904297 C 235.00844 73.091297 238.9208 75.548328 241.2168 76.361328 L 241.21875 76.363281 C 244.39575 77.489281 250.71258 77.861875 267.64258 77.921875 L 289.89258 78 L 289.89258 48.417969 L 289.89258 18.833984 z M 556.60742 19.683594 C 551.23099 19.638189 545.52783 20.430266 541.42383 22.009766 C 533.66683 24.995766 525.90836 32.565547 523.56836 39.435547 C 518.28461 54.942808 525.73327 69.331417 542.51758 76.048828 C 549.81512 78.967818 563.40534 78.402826 570.97656 74.867188 C 581.26656 70.062187 587.68395 61.37475 588.62695 50.96875 C 589.77895 38.26075 581.42834 26.459031 567.65234 21.332031 C 564.77272 20.260156 560.78909 19.718908 556.60742 19.683594 z M 137.89062 20.996094 L 137.89062 45.496094 L 137.89062 69.996094 L 133.35742 69.996094 C 127.06042 69.996094 122.3677 67.792172 120.2207 63.826172 C 118.6987 61.015172 118.36345 57.426047 118.06445 40.748047 L 117.71094 20.998047 L 109.21484 20.998047 L 100.71875 20.998047 L 101.08594 41.748047 C 101.38894 58.862047 101.7627 63.197375 103.2207 66.484375 C 105.4294 71.465694 108.51237 74.861716 112.39062 76.585938 L 112.39258 76.585938 C 114.67861 77.600422 122.81353 77.928038 146.48242 77.957031 C 177.10542 77.996031 177.64298 77.961687 181.95898 75.679688 C 185.16198 73.985688 187.02123 72.041938 188.86523 68.460938 C 191.29423 63.744938 191.40194 62.757297 191.71094 42.279297 L 192.03125 20.998047 L 183.46094 20.998047 L 174.88867 20.998047 L 174.83398 39.748047 C 174.79798 51.561047 174.33498 59.758297 173.58398 61.904297 C 171.83398 66.896297 167.98934 69.290734 160.90234 69.802734 L 154.89062 70.236328 L 154.89062 45.617188 L 154.89062 20.996094 L 146.39062 20.996094 L 137.89062 20.996094 z M 491.0332 25 L 490.70703 52.25 C 490.39403 78.479 490.29502 79.677703 488.04102 84.220703 C 486.75302 86.816703 483.96947 90.502109 481.85547 92.412109 C 476.06347 97.645109 470.07594 98.998047 452.71094 98.998047 L 437.89258 98.998047 L 437.89258 101.58594 L 437.89062 101.58594 L 437.89062 104.17383 L 458.64062 103.82227 C 477.56562 103.50327 479.74262 103.28413 483.39062 101.32812 C 488.72962 98.465121 492.30189 94.548 495.08789 88.5 C 497.29889 83.701 497.40498 82.321 497.70898 54.25 L 498.02539 25 L 494.5293 25 L 491.0332 25 z M 49.892578 27.998047 L 49.892578 48.998047 L 49.892578 69.994141 L 42.142578 69.972656 C 33.387578 69.948656 28.084266 68.049094 23.697266 63.371094 C 14.471266 53.533094 16.713906 37.580891 28.253906 30.962891 C 32.798906 28.356891 34.347578 28.015812 41.642578 28.007812 L 49.892578 27.998047 z M 264.88086 27.998047 L 272.93359 27.998047 L 272.66211 48.748047 L 272.39258 69.498047 L 264.89258 69.783203 C 254.86558 70.166203 247.84842 66.864937 243.48242 59.710938 C 238.43342 51.437938 239.99855 39.883875 247.06055 33.296875 C 251.09655 29.531875 256.25086 27.998047 264.88086 27.998047 z M 388.95508 28.148438 C 388.41683 28.186312 388.61452 29.388547 389.66602 31.748047 C 391.01202 34.769047 391.40722 39.630047 391.69922 56.748047 L 392.0625 77.998047 L 386.47852 77.998047 C 381.18752 77.998047 380.89258 78.130047 380.89258 80.498047 L 380.89062 80.498047 C 380.89062 82.982047 380.94986 82.998047 390.00586 82.998047 L 399.12109 82.998047 L 398.61914 62.748047 C 398.07814 40.885047 397.38811 37.270109 392.66211 31.537109 C 390.76661 29.237109 389.49333 28.110563 388.95508 28.148438 z M 555.59961 28.953125 C 560.64798 29.0485 565.6165 32.211297 568.5 38.404297 C 572.875 47.800297 571.07475 58.807281 564.09375 65.363281 L 564.09375 65.365234 C 560.06975 69.142234 553.80162 69.896312 548.89062 67.195312 C 540.64763 62.660313 537.1828 47.453203 542.2168 37.908203 C 545.4228 31.829703 550.55123 28.85775 555.59961 28.953125 z M 341.89258 28.998047 L 341.89258 53.498047 L 341.89258 77.998047 L 336.39258 77.998047 C 331.19419 77.998047 330.89276 78.13521 330.89258 80.496094 C 330.89258 80.496094 330.89258 80.498047 330.89258 80.498047 C 330.89262 82.977843 330.96224 82.996094 339.89258 82.996094 L 348.89258 82.996094 L 348.89258 58.496094 L 348.89258 33.996094 L 360.14258 33.964844 L 371.39258 33.933594 L 368.58789 31.466797 C 365.93889 29.136797 365.11289 28.998047 353.83789 28.998047 L 341.89258 28.998047 z M 464.35352 28.998047 C 453.38652 28.998047 446.98741 32.742469 443.44141 41.230469 C 440.74441 47.686469 442.09094 56.243938 446.58594 61.210938 L 446.58789 61.210938 C 448.78289 63.637938 448.89822 63.501859 447.82422 59.755859 C 444.14422 46.925859 454.02763 33.998047 467.51562 33.998047 C 471.51862 33.998047 471.89258 33.783047 471.89258 31.498047 C 471.89258 29.052047 471.72852 28.998047 464.35352 28.998047 z M 608.10352 65.003906 A 5.9297152 5.9297152 0 0 0 602.96094 68.464844 A 5.9297152 5.9297152 0 0 0 605.88477 76.320312 A 5.9297152 5.9297152 0 0 0 613.74219 73.402344 L 608.35352 70.929688 L 613.75 73.384766 A 5.9297152 5.9297152 0 0 0 610.8125 65.533203 A 5.9297152 5.9297152 0 0 0 608.10352 65.003906 z M 441.54297 76.361328 C 441.31959 76.360812 441.17003 76.388563 441.11328 76.445312 C 440.61528 76.943312 448.38458 80.9915 451.89258 82.0625 L 451.89453 82.060547 C 453.26953 82.480547 457.58342 82.863156 461.48242 82.910156 C 468.11242 82.990156 468.64594 82.834094 469.71094 80.496094 L 470.84961 77.996094 L 459.61523 77.996094 C 453.43523 77.996094 446.83713 77.553672 444.95312 77.013672 C 443.53937 76.608672 442.21309 76.362875 441.54297 76.361328 z "
  />
  <text
    font-size="96"
    id="text8072"
    x="621.59979"
    y="78.182831"
  >
    OSS
  </text>
</svg>
